/* XPM */
static char * icon_xpm[] = {
"48 48 165 2",
"  	c None",
". 	c #FFFFFF",
"+ 	c #FEFCFC",
"@ 	c #EDD3D3",
"# 	c #DFB0B0",
"$ 	c #DFAFAF",
"% 	c #E0B2B2",
"& 	c #F1DCDC",
"* 	c #FFFEFE",
"= 	c #EDD1D1",
"- 	c #B44343",
"; 	c #9D0909",
"> 	c #990000",
", 	c #9F0F0F",
"' 	c #BB5454",
") 	c #F4E3E3",
"! 	c #CD8383",
"~ 	c #9B0606",
"{ 	c #D9A1A1",
"] 	c #D39292",
"^ 	c #E3B9B9",
"/ 	c #F1DDDD",
"( 	c #9D0B0B",
"_ 	c #A51E1E",
": 	c #F9F1F1",
"< 	c #C16363",
"[ 	c #B95151",
"} 	c #EACACA",
"| 	c #FDFAFA",
"1 	c #FDFDFD",
"2 	c #9C9C9C",
"3 	c #B6B6B6",
"4 	c #FBF5F5",
"5 	c #E7C3C3",
"6 	c #B13B3B",
"7 	c #D18B8B",
"8 	c #AB2C2C",
"9 	c #FAFAFA",
"0 	c #636363",
"a 	c #333333",
"b 	c #5D5D5D",
"c 	c #FBF4F4",
"d 	c #A72323",
"e 	c #9A0303",
"f 	c #DBA4A4",
"g 	c #BDBDBD",
"h 	c #ADADAD",
"i 	c #C97979",
"j 	c #A62020",
"k 	c #F2DFDF",
"l 	c #EBCDCD",
"m 	c #EBEBEB",
"n 	c #C7C7C7",
"o 	c #C4C4C4",
"p 	c #F1F1F1",
"q 	c #787878",
"r 	c #656565",
"s 	c #DAA3A3",
"t 	c #9C0707",
"u 	c #ECCFCF",
"v 	c #818181",
"w 	c #939393",
"x 	c #515151",
"y 	c #363636",
"z 	c #383838",
"A 	c #F7F7F7",
"B 	c #DCA7A7",
"C 	c #404040",
"D 	c #414141",
"E 	c #F8F8F8",
"F 	c #353535",
"G 	c #434343",
"H 	c #696969",
"I 	c #C6C6C6",
"J 	c #C2C2C2",
"K 	c #C5C5C5",
"L 	c #D6D6D6",
"M 	c #686868",
"N 	c #9F9F9F",
"O 	c #999999",
"P 	c #838383",
"Q 	c #929292",
"R 	c #B3B3B3",
"S 	c #8D8D8D",
"T 	c #CDCDCD",
"U 	c #727272",
"V 	c #606060",
"W 	c #B1B1B1",
"X 	c #F3F3F3",
"Y 	c #4B4B4B",
"Z 	c #3B3B3B",
"` 	c #3E3E3E",
" .	c #F6F6F6",
"..	c #666666",
"+.	c #D5D5D5",
"@.	c #4D4D4D",
"#.	c #E3E3E3",
"$.	c #5E5E5E",
"%.	c #6C6C6C",
"&.	c #757575",
"*.	c #C9C9C9",
"=.	c #B9B9B9",
"-.	c #828282",
";.	c #A5A5A5",
">.	c #898989",
",.	c #E6E6E6",
"'.	c #525252",
").	c #A2A2A2",
"!.	c #878787",
"~.	c #AAAAAA",
"{.	c #E2E2E2",
"].	c #4C4C4C",
"^.	c #777777",
"/.	c #C3C3C3",
"(.	c #7B7B7B",
"_.	c #565656",
":.	c #DCDCDC",
"<.	c #535353",
"[.	c #555555",
"}.	c #EAEAEA",
"|.	c #3D3D3D",
"1.	c #E5E5E5",
"2.	c #343434",
"3.	c #424242",
"4.	c #FEFEFE",
"5.	c #919191",
"6.	c #373737",
"7.	c #6A6A6A",
"8.	c #737373",
"9.	c #DADADA",
"0.	c #8B8B8B",
"a.	c #4E4E4E",
"b.	c #9D9D9D",
"c.	c #505050",
"d.	c #B4B4B4",
"e.	c #8E8E8E",
"f.	c #E1E1E1",
"g.	c #B65F5F",
"h.	c #900505",
"i.	c #8E0505",
"j.	c #8D0606",
"k.	c #791010",
"l.	c #683F3F",
"m.	c #454242",
"n.	c #4A4A4A",
"o.	c #FCFCFC",
"p.	c #CCCCCC",
"q.	c #CAC5C5",
"r.	c #DFBDBD",
"s.	c #353232",
"t.	c #7F0D0D",
"u.	c #888888",
"v.	c #432B2B",
"w.	c #771111",
"x.	c #B5B5B5",
"y.	c #A0A0A0",
"z.	c #767676",
"A.	c #616161",
"B.	c #545454",
"C.	c #595858",
"D.	c #514343",
"E.	c #492929",
"F.	c #532323",
"G.	c #6F1515",
"H.	c #8C0707",
"  . . . . . . . . . . . . . . . . . . . . . . . . . . . . . . . . . . . . . . . . . . . . . .   ",
". . . . . . . . . . . . . . . . . . . . . . . . . . . . . . . . . . . . . . . . . . . . . . . . ",
". . . . . . . . . . . . . . . . . . . . . . . . . . . . . . . . . . . . . . . . . . . . . . . . ",
". . . . . . . . . . . . . . . . . . . . . . . . . . . . . . . . . . . . . . . . . . . . . . . . ",
". . . . . . . . . . . . . . . . . . . . . . . . . . . . . . . . . . . . . . . . . . . . . . . . ",
". . . . . . . . . . . . . . . . . . . . . . . . . . . . . . . . . . . . . . . . . . . . . . . . ",
". . . . . . . . . . . . . . . . . . . . . . . . . . . . . . . . . . . . . . . . . . . . . . . . ",
". . . . . . . . . . . . . . . . . . . . . . . . . . . . . . . . . . . . . . . . . . . . . . . . ",
". . . . . . . . . . . . . . . . . . . . . . . . . . . . . . . . . . . . . . . . . . . . . . . . ",
". . . . . . . . . . . . . . . . . . . . . . . . . . . . . . . . . . . . . . . . . . . . . . . . ",
". . . . . . . . . . . . . . . + @ # $ $ $ $ $ $ $ $ $ $ $ $ $ $ $ $ $ $ $ $ % & * . . . . . . . ",
". . . . . . . . . . . . . = - ; > > > > > > > > > > > > > > > > > > > > > > > > , ' ) . . . . . ",
". . . . . . . . . . . * ! ~ > > > > > > > > > > > > > > > > > > > > > > > > > > > > , { . . . . ",
". . . . . . . . . . . ] > > > > > > > > > > > > > > > > > > > > > > > > > > > > > > > > ^ . . . ",
". . . . . . . . . . / ( > > > > > > > > > > > > > > > > > > > > > > > > > > > > > > > > _ : . . ",
". . . . . . . . . . < > > > > [ } | . . . . . . . . . . . 1 2 3 1 . . . . . 4 5 6 > > > > 7 . . ",
". . . . . . . . . . 8 > > > - * . . . . . . . . . . . . 9 0 a a b 1 . . . . . . c d > > > ' . . ",
". . . . . . . . . 4 e > > > f . . . . . . . . . . . . . g a a a a h . . . . . . . i > > > j . . ",
". . . . . . . . . k > > > > l . . . . . m n o p . . . . q a a a a r . . . . . . . s > > > t . . ",
". . . . . . . . . k > > > > u . . . . . v a a w . . . . x a a y a z A . . . . . . B > > > t . . ",
". . . . . . . . . k > > > > u . . . . 9 C a a D E . . E F a G H a a I . . . . . . B > > > t . . ",
". . . . . . . . . k > > > > u . . . . J a a a a K . . L a a M N a a O . . . . . . B > > > t . . ",
". . . . . . . . . k > > > > u . . . . P a a a a Q . . R a a S T a a U . . . . . . B > > > t . . ",
". . . . . . . . . k > > > > u . . . . b a a a a V . . S a a W X a a Y . . . . . . B > > > t . . ",
". . . . . . . . . k > > > > u . . . 1 Z a Z ` a y  .. ..a a +.. @.a a p . . . . . B > > > t . . ",
". . . . . . . . . k > > > > u . . . #.a a $.%.a a n . D a F E . &.a a *.. . . . . B > > > t . . ",
". . . . . . . . . k > > > > u . . . =.a a -.;.a a >.,.a a '.. . 2 a a ).. . . . . B > > > t . . ",
". . . . . . . . . k > > > > u . . . !.a a ~.{.a a ].=.a a ^.. . /.a a (.. . . . . B > > > t . . ",
". . . . . . . . . k > > > > u . . . _.a a :.. <.a a [.a a W . . }.a a |.1.. . . . B > > > t . . ",
". . . . . . . . . k > > > > l . . p 2.a 3.4.. 5.a a a a 6.p . . . M a a x S 7.1.. s > > > t . . ",
". . . . . . . . . 4 e > > > f . . W a a 8.. . 9.y a a a 0.. . . . 1.|.a a a a =.. i > > > j . . ",
". . . . . . . . . . 8 > > > - * X a.a a 3 . . . b.a a c.A . . . . . d.D a a a e.c d > > > ' . . ",
". . . T 5.;.=.T f.p g.h.i.j.k.l.m.a a n.o.. . . 1 J {.1 . . . . . . . o.p.;.q.r.6 > > > > 7 . . ",
". . . 2 a a a a a a a a a a a a a a s.t.> > > > > > > > > > > > > > > > > > > > > > > > _ : . . ",
". . . u.a a a a a a a a a a a a a v.w.> > > > > > > > > > > > > > > > > > > > > > > > > ^ . . . ",
". . . 9.x.y.0.z.A.B.[.C.D.E.F.G.H.> > > > > > > > > > > > > > > > > > > > > > > > > , { . . . . ",
". . . . . . . . . . . . . = - ; > > > > > > > > > > > > > > > > > > > > > > > > , ' ) . . . . . ",
". . . . . . . . . . . . . . . + @ # $ $ $ $ $ $ $ $ $ $ $ $ $ $ $ $ $ $ $ $ % & * . . . . . . . ",
". . . . . . . . . . . . . . . . . . . . . . . . . . . . . . . . . . . . . . . . . . . . . . . . ",
". . . . . . . . . . . . . . . . . . . . . . . . . . . . . . . . . . . . . . . . . . . . . . . . ",
". . . . . . . . . . . . . . . . . . . . . . . . . . . . . . . . . . . . . . . . . . . . . . . . ",
". . . . . . . . . . . . . . . . . . . . . . . . . . . . . . . . . . . . . . . . . . . . . . . . ",
". . . . . . . . . . . . . . . . . . . . . . . . . . . . . . . . . . . . . . . . . . . . . . . . ",
". . . . . . . . . . . . . . . . . . . . . . . . . . . . . . . . . . . . . . . . . . . . . . . . ",
". . . . . . . . . . . . . . . . . . . . . . . . . . . . . . . . . . . . . . . . . . . . . . . . ",
". . . . . . . . . . . . . . . . . . . . . . . . . . . . . . . . . . . . . . . . . . . . . . . . ",
". . . . . . . . . . . . . . . . . . . . . . . . . . . . . . . . . . . . . . . . . . . . . . . . ",
"  . . . . . . . . . . . . . . . . . . . . . . . . . . . . . . . . . . . . . . . . . . . . . .   "};
